# Blender v2.92.0 OBJ File: 'obamaprisme.blend'
# www.blender.org
mtllib obamaprisme.mtl
o Cube_Cube.001
v -1.281770 -1.018835 1.287239
v -1.281770 -1.018835 -1.281770
v 1.287239 -1.018835 1.287239
v 1.287239 -1.018835 -1.281770
v 0.002734 0.992958 0.002735
vt 0.196212 0.507752
vt 0.047232 0.072788
vt 0.504819 0.224520
vt 0.487756 0.816358
vt 0.036699 0.946886
vt 0.195675 0.513964
vt 0.813871 0.534227
vt 0.956058 0.967989
vt 0.508838 0.813238
vt 0.518750 0.227105
vt 0.973437 0.096012
vt 0.810937 0.521418
vt 0.201562 0.513294
vt 0.514063 0.235598
vt 0.809375 0.528434
vt 0.504687 0.810561
vn -0.8428 0.5381 0.0000
vn 0.0000 0.5381 -0.8428
vn 0.8428 0.5381 0.0000
vn 0.0000 0.5381 0.8428
vn 0.0000 -1.0000 0.0000
usemtl Material.001
s off
f 1/1/1 5/2/1 2/3/1
f 2/4/2 5/5/2 4/6/2
f 4/7/3 5/8/3 3/9/3
f 3/10/4 5/11/4 1/12/4
f 2/13/5 4/14/5 3/15/5 1/16/5
