# Blender v2.79 (sub 0) OBJ File: ''
# www.blender.org
mtllib coin.mtl
o Cylinder_Cylinder.001
v 0.000000 0.501603 -0.134754
v 0.000000 0.501603 0.134754
v 0.191955 0.463421 -0.134754
v 0.191955 0.463421 0.134754
v 0.354687 0.354687 -0.134754
v 0.354687 0.354687 0.134754
v 0.463421 0.191955 -0.134754
v 0.463421 0.191955 0.134754
v 0.501603 -0.000000 -0.134754
v 0.501603 -0.000000 0.134754
v 0.463421 -0.191955 -0.134754
v 0.463421 -0.191955 0.134754
v 0.354687 -0.354687 -0.134754
v 0.354687 -0.354687 0.134754
v 0.191955 -0.463421 -0.134754
v 0.191955 -0.463421 0.134754
v 0.000000 -0.501603 -0.134754
v 0.000000 -0.501603 0.134754
v -0.191955 -0.463421 -0.134754
v -0.191955 -0.463421 0.134754
v -0.354687 -0.354687 -0.134754
v -0.354687 -0.354687 0.134754
v -0.463421 -0.191955 -0.134754
v -0.463421 -0.191955 0.134754
v -0.501603 -0.000000 -0.134754
v -0.501603 0.000000 0.134754
v -0.463421 0.191955 -0.134754
v -0.463421 0.191955 0.134754
v -0.354687 0.354687 -0.134754
v -0.354687 0.354687 0.134754
v -0.191955 0.463421 -0.134754
v -0.191955 0.463421 0.134754
v 0.000000 0.373382 -0.134754
v 0.142887 0.344960 -0.134754
v 0.142887 0.344960 0.134754
v 0.000000 0.373382 0.134754
v 0.264021 0.264021 -0.134754
v 0.264021 0.264021 0.134754
v 0.344960 0.142887 -0.134754
v 0.344960 0.142887 0.134754
v 0.373382 -0.000000 -0.134754
v 0.373382 -0.000000 0.134754
v 0.344960 -0.142887 -0.134754
v 0.344960 -0.142887 0.134754
v 0.264021 -0.264021 -0.134754
v 0.264021 -0.264021 0.134754
v 0.142887 -0.344960 -0.134754
v 0.142887 -0.344960 0.134754
v 0.000000 -0.373382 -0.134754
v 0.000000 -0.373382 0.134754
v -0.142887 -0.344960 -0.134754
v -0.142887 -0.344960 0.134754
v -0.264021 -0.264021 -0.134754
v -0.264021 -0.264021 0.134754
v -0.344960 -0.142887 -0.134754
v -0.344960 -0.142887 0.134754
v -0.373382 -0.000000 -0.134754
v -0.373382 0.000000 0.134754
v -0.344960 0.142887 -0.134754
v -0.344960 0.142887 0.134754
v -0.264021 0.264021 -0.134754
v -0.264021 0.264021 0.134754
v -0.142887 0.344960 -0.134754
v -0.142887 0.344960 0.134754
v 0.000000 0.373382 -0.072321
v 0.142887 0.344960 -0.072321
v 0.142887 0.344960 0.072321
v 0.000000 0.373382 0.072321
v 0.264021 0.264021 -0.072321
v 0.264021 0.264021 0.072321
v 0.344960 0.142887 -0.072321
v 0.344960 0.142887 0.072321
v 0.373382 -0.000000 -0.072321
v 0.373382 -0.000000 0.072321
v 0.344960 -0.142887 -0.072321
v 0.344960 -0.142887 0.072321
v 0.264021 -0.264021 -0.072321
v 0.264021 -0.264021 0.072321
v 0.142887 -0.344960 -0.072321
v 0.142887 -0.344960 0.072321
v 0.000000 -0.373382 -0.072321
v 0.000000 -0.373382 0.072321
v -0.142887 -0.344960 -0.072321
v -0.142887 -0.344960 0.072321
v -0.264021 -0.264021 -0.072321
v -0.264021 -0.264021 0.072321
v -0.344960 -0.142887 -0.072321
v -0.344960 -0.142887 0.072321
v -0.373382 -0.000000 -0.072321
v -0.373382 -0.000000 0.072321
v -0.344960 0.142887 -0.072321
v -0.344960 0.142887 0.072321
v -0.264021 0.264021 -0.072321
v -0.264021 0.264021 0.072321
v -0.142887 0.344960 -0.072321
v -0.142887 0.344960 0.072321
v -0.000000 0.110274 -0.125461
v -0.000000 0.110274 0.125461
v 0.070882 0.084474 -0.125461
v 0.070882 0.084474 0.125461
v 0.108598 0.019149 -0.125461
v 0.108598 0.019149 0.125461
v 0.095500 -0.055137 -0.125461
v 0.095500 -0.055137 0.125461
v 0.037716 -0.103623 -0.125461
v 0.037716 -0.103623 0.125461
v -0.037716 -0.103623 -0.125461
v -0.037716 -0.103623 0.125461
v -0.095500 -0.055137 -0.125461
v -0.095500 -0.055137 0.125461
v -0.108598 0.019149 -0.125461
v -0.108598 0.019149 0.125461
v -0.070883 0.084474 -0.125461
v -0.070883 0.084474 0.125461
v 0.000000 0.501603 -0.134754
v 0.191955 0.463421 -0.134754
v 0.191955 0.463421 0.134754
v 0.000000 0.501603 0.134754
v 0.354687 0.354687 -0.134754
v 0.354687 0.354687 0.134754
v 0.463421 0.191955 -0.134754
v 0.463421 0.191955 0.134754
v 0.501603 -0.000000 -0.134754
v 0.501603 -0.000000 0.134754
v 0.463421 -0.191955 -0.134754
v 0.463421 -0.191955 0.134754
v 0.354687 -0.354687 -0.134754
v 0.354687 -0.354687 0.134754
v 0.191955 -0.463421 -0.134754
v 0.191955 -0.463421 0.134754
v 0.000000 -0.501603 -0.134754
v 0.000000 -0.501603 0.134754
v -0.191955 -0.463421 -0.134754
v -0.191955 -0.463421 0.134754
v -0.354687 -0.354687 -0.134754
v -0.354687 -0.354687 0.134754
v -0.463421 -0.191955 -0.134754
v -0.463421 -0.191955 0.134754
v -0.501603 -0.000000 -0.134754
v -0.501603 0.000000 0.134754
v -0.463421 0.191955 -0.134754
v -0.463421 0.191955 0.134754
v -0.354687 0.354687 -0.134754
v -0.354687 0.354687 0.134754
v -0.191955 0.463421 -0.134754
v -0.191955 0.463421 0.134754
v 0.000000 0.373382 -0.134754
v 0.142887 0.344960 -0.134754
v 0.142887 0.344960 0.134754
v 0.000000 0.373382 0.134754
v 0.264021 0.264021 -0.134754
v 0.264021 0.264021 0.134754
v 0.344960 0.142887 -0.134754
v 0.344960 0.142887 0.134754
v 0.373382 -0.000000 -0.134754
v 0.373382 -0.000000 0.134754
v 0.344960 -0.142887 -0.134754
v 0.344960 -0.142887 0.134754
v 0.264021 -0.264021 -0.134754
v 0.264021 -0.264021 0.134754
v 0.142887 -0.344960 -0.134754
v 0.142887 -0.344960 0.134754
v 0.000000 -0.373382 -0.134754
v 0.000000 -0.373382 0.134754
v -0.142887 -0.344960 -0.134754
v -0.142887 -0.344960 0.134754
v -0.264021 -0.264021 -0.134754
v -0.264021 -0.264021 0.134754
v -0.344960 -0.142887 -0.134754
v -0.344960 -0.142887 0.134754
v -0.373382 -0.000000 -0.134754
v -0.373382 0.000000 0.134754
v -0.344960 0.142887 -0.134754
v -0.344960 0.142887 0.134754
v -0.264021 0.264021 -0.134754
v -0.264021 0.264021 0.134754
v -0.142887 0.344960 -0.134754
v -0.142887 0.344960 0.134754
v 0.000000 0.373382 -0.072321
v 0.142887 0.344960 -0.072321
v 0.142887 0.344960 0.072321
v 0.000000 0.373382 0.072321
v 0.264021 0.264021 -0.072321
v 0.264021 0.264021 0.072321
v 0.344960 0.142887 -0.072321
v 0.344960 0.142887 0.072321
v 0.373382 -0.000000 -0.072321
v 0.373382 -0.000000 0.072321
v 0.344960 -0.142887 -0.072321
v 0.344960 -0.142887 0.072321
v 0.264021 -0.264021 -0.072321
v 0.264021 -0.264021 0.072321
v 0.142887 -0.344960 -0.072321
v 0.142887 -0.344960 0.072321
v 0.000000 -0.373382 -0.072321
v 0.000000 -0.373382 0.072321
v -0.142887 -0.344960 -0.072321
v -0.142887 -0.344960 0.072321
v -0.264021 -0.264021 -0.072321
v -0.264021 -0.264021 0.072321
v -0.344960 -0.142887 -0.072321
v -0.344960 -0.142887 0.072321
v -0.373382 -0.000000 -0.072321
v -0.373382 -0.000000 0.072321
v -0.344960 0.142887 -0.072321
v -0.344960 0.142887 0.072321
v -0.264021 0.264021 -0.072321
v -0.264021 0.264021 0.072321
v -0.142887 0.344960 -0.072321
v -0.142887 0.344960 0.072321
v -0.000000 0.110274 -0.125461
v 0.070882 0.084474 -0.125461
v 0.070882 0.084474 0.125461
v -0.000000 0.110274 0.125461
v 0.108598 0.019149 -0.125461
v 0.108598 0.019149 0.125461
v 0.095500 -0.055137 -0.125461
v 0.095500 -0.055137 0.125461
v 0.037716 -0.103623 -0.125461
v 0.037716 -0.103623 0.125461
v -0.037716 -0.103623 -0.125461
v -0.037716 -0.103623 0.125461
v -0.095500 -0.055137 -0.125461
v -0.095500 -0.055137 0.125461
v -0.108598 0.019149 -0.125461
v -0.108598 0.019149 0.125461
v -0.070883 0.084474 -0.125461
v -0.070883 0.084474 0.125461
vn 0.0000 1.0000 0.0000
vn 0.3827 0.9239 0.0000
vn 0.7071 0.7071 0.0000
vn 0.9239 0.3827 0.0000
vn 1.0000 0.0000 0.0000
vn 0.9239 -0.3827 0.0000
vn 0.7071 -0.7071 0.0000
vn 0.3827 -0.9239 0.0000
vn 0.0000 -1.0000 0.0000
vn -0.3827 -0.9239 0.0000
vn -0.7071 -0.7071 0.0000
vn -0.9239 -0.3827 0.0000
vn -1.0000 0.0000 0.0000
vn -0.9239 0.3827 0.0000
vn -0.7071 0.7071 0.0000
vn 0.0000 0.0000 1.0000
vn -0.3827 0.9239 0.0000
vn 0.0000 0.0000 -1.0000
vn 0.6428 0.7660 0.0000
vn 0.9848 0.1736 0.0000
vn 0.8660 -0.5000 0.0000
vn 0.3420 -0.9397 0.0000
vn -0.3420 -0.9397 0.0000
vn -0.8660 -0.5000 0.0000
vn -0.9848 0.1736 0.0000
vn -0.6428 0.7660 0.0000
usemtl None
s 1
f 115//1 118//1 117//2 116//2
f 116//2 117//2 120//3 119//3
f 119//3 120//3 122//4 121//4
f 121//4 122//4 124//5 123//5
f 123//5 124//5 126//6 125//6
f 125//6 126//6 128//7 127//7
f 127//7 128//7 130//8 129//8
f 129//8 130//8 132//9 131//9
f 131//9 132//9 134//10 133//10
f 133//10 134//10 136//11 135//11
f 135//11 136//11 138//12 137//12
f 137//12 138//12 140//13 139//13
f 139//13 140//13 142//14 141//14
f 141//14 142//14 144//15 143//15
f 26//16 24//16 170//16 172//16
f 143//15 144//15 146//17 145//17
f 145//17 146//17 118//1 115//1
f 8//16 6//16 152//16 154//16
f 176//7 60//6 92//6 208//7
f 147//9 148//10 180//10 179//9
f 15//18 17//18 163//18 161//18
f 18//16 16//16 162//16 164//16
f 7//18 9//18 155//18 153//18
f 25//18 27//18 173//18 171//18
f 10//16 8//16 154//16 156//16
f 28//16 26//16 172//16 174//16
f 17//18 19//18 165//18 163//18
f 20//16 18//16 164//16 166//16
f 9//18 11//18 157//18 155//18
f 27//18 29//18 175//18 173//18
f 1//18 3//18 34//18 33//18
f 12//16 10//16 156//16 158//16
f 30//16 28//16 174//16 62//16
f 4//16 2//16 150//16 149//16
f 19//18 21//18 167//18 165//18
f 22//16 20//16 166//16 168//16
f 11//18 13//18 159//18 157//18
f 29//18 31//18 177//18 175//18
f 14//16 12//16 158//16 160//16
f 32//16 30//16 62//16 178//16
f 3//18 5//18 151//18 34//18
f 21//18 23//18 169//18 167//18
f 6//16 4//16 149//16 152//16
f 24//16 22//16 168//16 170//16
f 13//18 15//18 161//18 159//18
f 31//18 1//18 33//18 177//18
f 16//16 14//16 160//16 162//16
f 2//16 32//16 178//16 150//16
f 5//18 7//18 153//18 151//18
f 23//18 25//18 171//18 169//18
f 181//16 182//16 210//16 94//16 206//16 204//16 202//16 200//16 198//16 196//16 194//16 192//16 190//16 188//16 186//16 184//16
f 65//18 66//18 183//18 185//18 187//18 189//18 191//18 193//18 195//18 197//18 199//18 201//18 203//18 205//18 207//18 209//18
f 47//17 49//1 81//1 79//17
f 35//10 36//9 68//9 67//10
f 61//7 63//8 95//8 93//7
f 50//1 48//17 80//17 82//1
f 148//10 37//11 69//11 180//10
f 64//8 176//7 208//7 96//8
f 49//1 51//2 83//2 81//1
f 38//11 35//10 67//10 70//11
f 63//8 147//9 179//9 95//8
f 52//2 50//1 82//1 84//2
f 37//11 39//12 71//12 69//11
f 36//9 64//8 96//8 68//9
f 51//2 53//3 85//3 83//2
f 40//12 38//11 70//11 72//12
f 54//3 52//2 84//2 86//3
f 39//12 41//13 73//13 71//12
f 53//3 55//4 87//4 85//3
f 42//13 40//12 72//12 74//13
f 56//4 54//3 86//3 88//4
f 41//13 43//14 75//14 73//13
f 55//4 57//5 89//5 87//4
f 44//14 42//13 74//13 76//14
f 58//5 56//4 88//4 90//5
f 43//14 45//15 77//15 75//14
f 57//5 59//6 91//6 89//5
f 46//15 44//14 76//14 78//15
f 60//6 58//5 90//5 92//6
f 45//15 47//17 79//17 77//15
f 59//6 61//7 93//7 91//6
f 48//17 46//15 78//15 80//17
f 211//1 214//1 213//19 212//19
f 212//19 213//19 216//20 215//20
f 215//20 216//20 218//21 217//21
f 217//21 218//21 220//22 219//22
f 219//22 220//22 222//23 221//23
f 221//23 222//23 224//24 223//24
f 223//24 224//24 226//25 225//25
f 100//16 98//16 228//16 112//16 110//16 108//16 106//16 104//16 102//16
f 225//25 226//25 114//26 227//26
f 227//26 114//26 214//1 211//1
f 97//18 99//18 101//18 103//18 105//18 107//18 109//18 111//18 113//18
