# Blender v2.79 (sub 0) OBJ File: 'rounded_block.blend'
# www.blender.org
mtllib cylinder.mtl
o Cylinder_Cylinder.001
v 0.000000 -1.000000 -1.000000
v 0.000000 1.000000 -1.000000
v 0.195090 -1.000000 -0.980785
v 0.195090 1.000000 -0.980785
v 0.382683 -1.000000 -0.923880
v 0.382683 1.000000 -0.923880
v 0.555570 -1.000000 -0.831470
v 0.555570 1.000000 -0.831470
v 0.707107 -1.000000 -0.707107
v 0.707107 1.000000 -0.707107
v 0.831470 -1.000000 -0.555570
v 0.831470 1.000000 -0.555570
v 0.923880 -1.000000 -0.382683
v 0.923880 1.000000 -0.382683
v 0.980785 -1.000000 -0.195090
v 0.980785 1.000000 -0.195090
v 1.000000 -1.000000 -0.000000
v 1.000000 1.000000 -0.000000
v 0.980785 -1.000000 0.195090
v 0.980785 1.000000 0.195090
v 0.923880 -1.000000 0.382683
v 0.923880 1.000000 0.382683
v 0.831470 -1.000000 0.555570
v 0.831470 1.000000 0.555570
v 0.707107 -1.000000 0.707107
v 0.707107 1.000000 0.707107
v 0.555570 -1.000000 0.831470
v 0.555570 1.000000 0.831470
v 0.382683 -1.000000 0.923880
v 0.382683 1.000000 0.923880
v 0.195090 -1.000000 0.980785
v 0.195090 1.000000 0.980785
v -0.000000 -1.000000 1.000000
v -0.000000 1.000000 1.000000
v -0.195091 -1.000000 0.980785
v -0.195091 1.000000 0.980785
v -0.382684 -1.000000 0.923879
v -0.382684 1.000000 0.923879
v -0.555571 -1.000000 0.831469
v -0.555571 1.000000 0.831469
v -0.707107 -1.000000 0.707106
v -0.707107 1.000000 0.707106
v -0.831470 -1.000000 0.555570
v -0.831470 1.000000 0.555570
v -0.923880 -1.000000 0.382683
v -0.923880 1.000000 0.382683
v -0.980785 -1.000000 0.195089
v -0.980785 1.000000 0.195089
v -1.000000 -1.000000 -0.000001
v -1.000000 1.000000 -0.000001
v -0.980785 -1.000000 -0.195091
v -0.980785 1.000000 -0.195091
v -0.923879 -1.000000 -0.382684
v -0.923879 1.000000 -0.382684
v -0.831469 -1.000000 -0.555571
v -0.831469 1.000000 -0.555571
v -0.707106 -1.000000 -0.707108
v -0.707106 1.000000 -0.707108
v -0.555569 -1.000000 -0.831470
v -0.555569 1.000000 -0.831470
v -0.382682 -1.000000 -0.923880
v -0.382682 1.000000 -0.923880
v -0.195089 -1.000000 -0.980786
v -0.195089 1.000000 -0.980786
v 0.000000 -1.000000 -1.000000
v 0.195090 -1.000000 -0.980785
v 0.195090 1.000000 -0.980785
v 0.000000 1.000000 -1.000000
v 0.382683 -1.000000 -0.923880
v 0.382683 1.000000 -0.923880
v 0.555570 -1.000000 -0.831470
v 0.555570 1.000000 -0.831470
v 0.707107 -1.000000 -0.707107
v 0.707107 1.000000 -0.707107
v 0.831470 -1.000000 -0.555570
v 0.831470 1.000000 -0.555570
v 0.923880 -1.000000 -0.382683
v 0.923880 1.000000 -0.382683
v 0.980785 -1.000000 -0.195090
v 0.980785 1.000000 -0.195090
v 1.000000 -1.000000 -0.000000
v 1.000000 1.000000 -0.000000
v 0.980785 -1.000000 0.195090
v 0.980785 1.000000 0.195090
v 0.923880 -1.000000 0.382683
v 0.923880 1.000000 0.382683
v 0.831470 -1.000000 0.555570
v 0.831470 1.000000 0.555570
v 0.707107 -1.000000 0.707107
v 0.707107 1.000000 0.707107
v 0.555570 -1.000000 0.831470
v 0.555570 1.000000 0.831470
v 0.382683 -1.000000 0.923880
v 0.382683 1.000000 0.923880
v 0.195090 -1.000000 0.980785
v 0.195090 1.000000 0.980785
v -0.000000 -1.000000 1.000000
v -0.000000 1.000000 1.000000
v -0.195091 -1.000000 0.980785
v -0.195091 1.000000 0.980785
v -0.382684 -1.000000 0.923879
v -0.382684 1.000000 0.923879
v -0.555571 -1.000000 0.831469
v -0.555571 1.000000 0.831469
v -0.707107 -1.000000 0.707106
v -0.707107 1.000000 0.707106
v -0.831470 -1.000000 0.555570
v -0.831470 1.000000 0.555570
v -0.923880 -1.000000 0.382683
v -0.923880 1.000000 0.382683
v -0.980785 -1.000000 0.195089
v -0.980785 1.000000 0.195089
v -1.000000 -1.000000 -0.000001
v -1.000000 1.000000 -0.000001
v -0.980785 -1.000000 -0.195091
v -0.980785 1.000000 -0.195091
v -0.923879 -1.000000 -0.382684
v -0.923879 1.000000 -0.382684
v -0.831469 -1.000000 -0.555571
v -0.831469 1.000000 -0.555571
v -0.707106 -1.000000 -0.707108
v -0.707106 1.000000 -0.707108
v -0.555569 -1.000000 -0.831470
v -0.555569 1.000000 -0.831470
v -0.382682 -1.000000 -0.923880
v -0.382682 1.000000 -0.923880
v -0.195089 -1.000000 -0.980786
v -0.195089 1.000000 -0.980786
vt 0.000000 0.000000
vt 1.000000 0.000000
vt 1.000000 1.000000
vt 0.000000 1.000000
vt 0.000000 0.000000
vt 1.000000 0.000000
vt 1.000000 1.000000
vt 0.000000 1.000000
vt 0.000000 0.000000
vt 1.000000 0.000000
vt 1.000000 1.000000
vt 0.000000 1.000000
vt 0.000000 0.000000
vt 1.000000 0.000000
vt 1.000000 1.000000
vt 0.000000 1.000000
vt 0.000000 0.000000
vt 1.000000 0.000000
vt 1.000000 1.000000
vt 0.000000 1.000000
vt 0.000000 0.000000
vt 1.000000 0.000000
vt 1.000000 1.000000
vt 0.000000 1.000000
vt 0.000000 0.000000
vt 1.000000 0.000000
vt 1.000000 1.000000
vt 0.000000 1.000000
vt 0.000000 0.000000
vt 1.000000 0.000000
vt 1.000000 1.000000
vt 0.000000 1.000000
vt 0.000000 0.000000
vt 1.000000 0.000000
vt 1.000000 1.000000
vt 0.000000 1.000000
vt 0.000000 0.000000
vt 1.000000 0.000000
vt 1.000000 1.000000
vt 0.000000 1.000000
vt 0.000000 0.000000
vt 1.000000 0.000000
vt 1.000000 1.000000
vt 0.000000 1.000000
vt 0.000000 0.000000
vt 1.000000 0.000000
vt 1.000000 1.000000
vt 0.000000 1.000000
vt 0.000000 0.000000
vt 1.000000 0.000000
vt 1.000000 1.000000
vt 0.000000 1.000000
vt 0.000000 0.000000
vt 1.000000 0.000000
vt 1.000000 1.000000
vt 0.000000 1.000000
vt 0.000000 0.000000
vt 1.000000 0.000000
vt 1.000000 1.000000
vt 0.000000 1.000000
vt 0.000000 0.000000
vt 1.000000 0.000000
vt 1.000000 1.000000
vt 0.000000 1.000000
vt 0.000000 0.000000
vt 1.000000 0.000000
vt 1.000000 1.000000
vt 0.000000 1.000000
vt 0.000000 0.000000
vt 1.000000 0.000000
vt 1.000000 1.000000
vt 0.000000 1.000000
vt 0.000000 0.000000
vt 1.000000 0.000000
vt 1.000000 1.000000
vt 0.000000 1.000000
vt 0.000000 0.000000
vt 1.000000 0.000000
vt 1.000000 1.000000
vt 0.000000 1.000000
vt 0.000000 0.000000
vt 1.000000 0.000000
vt 1.000000 1.000000
vt 0.000000 1.000000
vt 0.000000 0.000000
vt 1.000000 0.000000
vt 1.000000 1.000000
vt 0.000000 1.000000
vt 0.000000 0.000000
vt 1.000000 0.000000
vt 1.000000 1.000000
vt 0.000000 1.000000
vt 0.000000 0.000000
vt 1.000000 0.000000
vt 1.000000 1.000000
vt 0.000000 1.000000
vt 0.000000 0.000000
vt 1.000000 0.000000
vt 1.000000 1.000000
vt 0.000000 1.000000
vt 0.000000 0.000000
vt 1.000000 0.000000
vt 1.000000 1.000000
vt 0.000000 1.000000
vt 0.000000 0.000000
vt 1.000000 0.000000
vt 1.000000 1.000000
vt 0.000000 1.000000
vt 0.000000 0.000000
vt 1.000000 0.000000
vt 1.000000 1.000000
vt 0.000000 1.000000
vt 0.000000 0.000000
vt 1.000000 0.000000
vt 1.000000 1.000000
vt 0.000000 1.000000
vt 0.000000 0.000000
vt 1.000000 0.000000
vt 1.000000 1.000000
vt 0.000000 1.000000
vt 0.500000 1.000000
vt 0.597545 0.990393
vt 0.691342 0.961940
vt 0.777785 0.915735
vt 0.853553 0.853553
vt 0.915735 0.777785
vt 0.961940 0.691342
vt 0.990393 0.597545
vt 1.000000 0.500000
vt 0.990393 0.402455
vt 0.961940 0.308658
vt 0.915735 0.222215
vt 0.853553 0.146447
vt 0.777785 0.084265
vt 0.691342 0.038060
vt 0.597545 0.009607
vt 0.500000 0.000000
vt 0.402455 0.009607
vt 0.308658 0.038060
vt 0.222215 0.084265
vt 0.146446 0.146447
vt 0.084265 0.222215
vt 0.038060 0.308659
vt 0.009607 0.402455
vt 0.000000 0.500000
vt 0.009607 0.597546
vt 0.038060 0.691342
vt 0.084266 0.777786
vt 0.146447 0.853554
vt 0.222215 0.915735
vt 0.308659 0.961940
vt 0.402456 0.990393
vt 0.000000 0.000000
vt 1.000000 0.000000
vt 1.000000 1.000000
vt 0.000000 1.000000
vt 0.000000 0.000000
vt 1.000000 0.000000
vt 1.000000 1.000000
vt 0.000000 1.000000
vt 0.500000 1.000000
vt 0.597545 0.990393
vt 0.691342 0.961940
vt 0.777785 0.915735
vt 0.853553 0.853553
vt 0.915735 0.777785
vt 0.961940 0.691342
vt 0.990393 0.597545
vt 1.000000 0.500000
vt 0.990393 0.402455
vt 0.961940 0.308658
vt 0.915735 0.222215
vt 0.853553 0.146447
vt 0.777785 0.084265
vt 0.691342 0.038060
vt 0.597545 0.009607
vt 0.500000 0.000000
vt 0.402455 0.009607
vt 0.308658 0.038060
vt 0.222215 0.084265
vt 0.146446 0.146447
vt 0.084265 0.222215
vt 0.038060 0.308659
vt 0.009607 0.402455
vt 0.000000 0.500000
vt 0.009607 0.597546
vt 0.038060 0.691342
vt 0.084266 0.777786
vt 0.146447 0.853554
vt 0.222215 0.915735
vt 0.308659 0.961940
vt 0.402456 0.990393
vn 0.0000 0.0000 -1.0000
vn 0.1951 0.0000 -0.9808
vn 0.3827 0.0000 -0.9239
vn 0.5556 0.0000 -0.8314
vn 0.7071 0.0000 -0.7071
vn 0.8314 0.0000 -0.5556
vn 0.9239 0.0000 -0.3827
vn 0.9808 0.0000 -0.1951
vn 1.0000 0.0000 0.0000
vn 0.9808 0.0000 0.1951
vn 0.9239 0.0000 0.3827
vn 0.8314 0.0000 0.5556
vn 0.7071 0.0000 0.7071
vn 0.5556 0.0000 0.8314
vn 0.3827 0.0000 0.9239
vn 0.1951 0.0000 0.9808
vn 0.0000 0.0000 1.0000
vn -0.1951 0.0000 0.9808
vn -0.3827 0.0000 0.9239
vn -0.5556 0.0000 0.8314
vn -0.7071 0.0000 0.7071
vn -0.8314 0.0000 0.5556
vn -0.9239 0.0000 0.3827
vn -0.9808 0.0000 0.1951
vn -1.0000 0.0000 0.0000
vn -0.9808 0.0000 -0.1951
vn -0.9239 0.0000 -0.3827
vn -0.8314 0.0000 -0.5556
vn -0.7071 0.0000 -0.7071
vn -0.5556 0.0000 -0.8314
vn -0.3827 0.0000 -0.9239
vn 0.0000 1.0000 0.0000
vn -0.1951 0.0000 -0.9808
vn 0.0000 -1.0000 0.0000
usemtl None
s 1
f 65/1/1 68/2/1 67/3/2 66/4/2
f 66/5/2 67/6/2 70/7/3 69/8/3
f 69/9/3 70/10/3 72/11/4 71/12/4
f 71/13/4 72/14/4 74/15/5 73/16/5
f 73/17/5 74/18/5 76/19/6 75/20/6
f 75/21/6 76/22/6 78/23/7 77/24/7
f 77/25/7 78/26/7 80/27/8 79/28/8
f 79/29/8 80/30/8 82/31/9 81/32/9
f 81/33/9 82/34/9 84/35/10 83/36/10
f 83/37/10 84/38/10 86/39/11 85/40/11
f 85/41/11 86/42/11 88/43/12 87/44/12
f 87/45/12 88/46/12 90/47/13 89/48/13
f 89/49/13 90/50/13 92/51/14 91/52/14
f 91/53/14 92/54/14 94/55/15 93/56/15
f 93/57/15 94/58/15 96/59/16 95/60/16
f 95/61/16 96/62/16 98/63/17 97/64/17
f 97/65/17 98/66/17 100/67/18 99/68/18
f 99/69/18 100/70/18 102/71/19 101/72/19
f 101/73/19 102/74/19 104/75/20 103/76/20
f 103/77/20 104/78/20 106/79/21 105/80/21
f 105/81/21 106/82/21 108/83/22 107/84/22
f 107/85/22 108/86/22 110/87/23 109/88/23
f 109/89/23 110/90/23 112/91/24 111/92/24
f 111/93/24 112/94/24 114/95/25 113/96/25
f 113/97/25 114/98/25 116/99/26 115/100/26
f 115/101/26 116/102/26 118/103/27 117/104/27
f 117/105/27 118/106/27 120/107/28 119/108/28
f 119/109/28 120/110/28 122/111/29 121/112/29
f 121/113/29 122/114/29 124/115/30 123/116/30
f 123/117/30 124/118/30 126/119/31 125/120/31
f 4/121/32 2/122/32 128/123/32 62/124/32 60/125/32 58/126/32 56/127/32 54/128/32 52/129/32 50/130/32 48/131/32 46/132/32 44/133/32 42/134/32 40/135/32 38/136/32 36/137/32 34/138/32 32/139/32 30/140/32 28/141/32 26/142/32 24/143/32 22/144/32 20/145/32 18/146/32 16/147/32 14/148/32 12/149/32 10/150/32 8/151/32 6/152/32
f 125/153/31 126/154/31 64/155/33 127/156/33
f 127/157/33 64/158/33 68/159/1 65/160/1
f 1/161/34 3/162/34 5/163/34 7/164/34 9/165/34 11/166/34 13/167/34 15/168/34 17/169/34 19/170/34 21/171/34 23/172/34 25/173/34 27/174/34 29/175/34 31/176/34 33/177/34 35/178/34 37/179/34 39/180/34 41/181/34 43/182/34 45/183/34 47/184/34 49/185/34 51/186/34 53/187/34 55/188/34 57/189/34 59/190/34 61/191/34 63/192/34
